<?xml version="1.0" standalone="no"?>
<!DOCTYPE svg PUBLIC "-//W3C//DTD SVG 20010904//EN"
 "http://www.w3.org/TR/2001/REC-SVG-20010904/DTD/svg10.dtd">
<svg version="1.0" xmlns="http://www.w3.org/2000/svg"
 width="1000.000000pt" height="1000.000000pt" viewBox="0 0 1000.000000 1000.000000"
 preserveAspectRatio="xMidYMid meet">
<metadata>
Created by potrace 1.14, written by Peter Selinger 2001-2017
</metadata>
<g transform="translate(0.000000,1000.000000) scale(0.100000,-0.100000)"
fill="#000000" stroke="none">
<path d="M4738 9995 c-1 -1 -52 -6 -113 -9 -60 -4 -119 -9 -130 -11 -11 -2
-46 -7 -77 -9 -31 -3 -67 -8 -80 -10 -13 -3 -41 -8 -63 -10 -54 -6 -216 -34
-290 -51 -33 -8 -71 -16 -85 -19 -41 -7 -222 -53 -285 -72 -33 -10 -62 -19
-65 -19 -255 -63 -797 -302 -1105 -488 -60 -37 -123 -74 -140 -84 -16 -10 -32
-20 -35 -23 -3 -3 -48 -34 -100 -69 -331 -223 -695 -549 -960 -861 -30 -36
-57 -67 -60 -70 -12 -12 -153 -191 -184 -236 -62 -87 -190 -277 -202 -298 -7
-12 -42 -70 -78 -131 -105 -174 -241 -451 -329 -671 -107 -266 -235 -699 -262
-890 -3 -21 -8 -45 -11 -52 -6 -19 -42 -254 -49 -327 -4 -33 -8 -71 -11 -85
-25 -154 -25 -863 0 -995 2 -11 7 -51 11 -90 4 -38 8 -77 10 -85 2 -8 6 -35 9
-60 8 -61 23 -145 47 -270 31 -157 108 -441 171 -625 102 -298 275 -672 436
-940 35 -60 199 -311 214 -330 5 -5 32 -42 61 -81 212 -288 487 -584 751 -809
32 -27 68 -58 80 -69 88 -78 407 -307 531 -383 479 -292 917 -479 1421 -606
162 -41 376 -86 494 -102 25 -4 56 -8 70 -10 14 -2 50 -7 80 -10 30 -4 69 -8
85 -10 211 -26 865 -26 1000 -1 11 2 51 7 88 11 37 3 77 8 89 10 11 3 46 7 77
11 31 3 58 8 61 9 3 2 26 6 50 10 83 12 361 75 488 111 230 64 468 150 657
235 22 10 66 29 98 43 31 14 57 28 57 32 0 3 -23 54 -51 113 -66 135 -177 366
-241 501 -114 238 -251 395 -463 531 -146 94 -414 186 -620 213 -22 3 -59 8
-82 11 -62 8 -296 8 -383 0 -41 -4 -93 -9 -115 -11 -56 -5 -338 -5 -410 1
-113 8 -190 15 -205 20 -8 2 -37 6 -65 10 -57 7 -180 31 -240 46 -22 6 -51 13
-65 14 -14 2 -97 27 -185 55 -177 58 -348 130 -500 210 -55 29 -110 58 -122
64 -13 6 -23 14 -23 19 0 4 -5 7 -10 7 -10 0 -207 126 -220 140 -3 3 -32 25
-65 49 -33 25 -62 47 -65 50 -3 4 -30 26 -60 51 -82 66 -223 203 -312 301 -66
73 -89 101 -149 179 -61 79 -179 246 -179 254 0 1 -22 40 -50 86 -81 135 -236
467 -255 545 -1 6 -5 17 -8 25 -10 27 -47 146 -52 166 -2 10 -10 44 -19 74
-36 136 -70 329 -82 465 -2 33 -7 76 -9 95 -5 39 -6 375 -1 430 22 231 20 223
51 380 58 300 154 580 283 830 36 69 72 140 81 158 8 17 19 32 23 32 4 0 8 5
8 11 0 12 147 236 170 259 3 3 27 34 55 70 27 36 62 79 77 95 14 17 36 41 48
55 12 14 45 50 74 80 381 396 838 675 1366 837 8 2 17 5 20 5 3 1 25 8 50 15
59 18 249 62 291 67 19 3 50 8 69 11 135 25 275 33 515 30 143 -2 276 -6 295
-8 83 -11 250 -38 262 -42 7 -2 29 -6 49 -9 20 -3 47 -10 60 -15 13 -5 27 -9
32 -9 50 -3 274 -73 432 -135 130 -51 406 -185 436 -213 8 -7 19 -14 22 -14 7
0 207 -129 217 -140 3 -3 32 -25 65 -49 33 -25 62 -47 65 -50 3 -3 25 -22 50
-42 107 -87 237 -214 370 -364 20 -22 65 -78 100 -125 36 -47 67 -87 70 -90
11 -10 140 -210 140 -217 0 -3 6 -14 14 -22 17 -19 176 -327 176 -341 0 -5 11
-34 25 -65 66 -144 165 -483 191 -660 3 -16 9 -55 14 -85 5 -30 12 -91 16
-135 4 -44 8 -93 10 -110 4 -41 4 -361 0 -405 -2 -19 -7 -69 -10 -110 -9 -104
-17 -163 -21 -170 -6 -10 -18 -203 -17 -290 1 -165 10 -234 57 -455 13 -60 63
-192 105 -277 128 -258 288 -417 570 -565 52 -28 115 -62 140 -75 25 -14 86
-47 135 -73 50 -27 124 -67 165 -89 113 -62 130 -70 134 -65 12 13 140 282
185 389 30 69 57 134 62 145 59 132 187 546 224 725 2 8 8 35 14 60 5 25 13
61 16 80 3 19 12 69 20 110 20 101 53 366 62 498 16 216 9 694 -12 872 -3 19
-7 60 -10 90 -4 30 -8 57 -10 60 -1 3 -5 32 -9 65 -3 33 -8 71 -11 85 -3 14
-12 64 -20 111 -18 100 -85 377 -121 499 -143 477 -355 932 -622 1334 -76 114
-217 310 -246 343 -6 6 -22 26 -36 44 -14 18 -30 37 -35 43 -6 6 -23 27 -39
46 -87 106 -293 321 -432 450 -441 410 -1038 780 -1599 990 -33 12 -69 26 -80
31 -122 53 -598 184 -745 205 -19 2 -50 9 -70 14 -19 5 -60 12 -90 15 -30 4
-57 8 -60 10 -6 4 -64 11 -195 25 -55 6 -122 13 -150 16 -54 6 -651 15 -657 9z"/>
<path d="M4818 7595 c-1 -1 -37 -6 -78 -9 -41 -3 -88 -8 -105 -11 -78 -13 -92
-15 -115 -20 -14 -3 -38 -8 -55 -10 -94 -17 -350 -95 -445 -137 -25 -11 -61
-26 -80 -35 -405 -175 -805 -504 -1067 -878 -221 -315 -385 -719 -439 -1080
-3 -16 -7 -39 -9 -51 -20 -92 -27 -467 -12 -619 49 -495 234 -953 546 -1355
60 -78 279 -305 361 -376 190 -162 472 -331 706 -424 175 -70 414 -137 554
-156 30 -4 66 -9 80 -11 200 -29 583 -23 770 12 14 3 41 8 60 11 127 21 374
97 530 163 111 47 109 44 85 88 -49 92 -162 223 -261 303 -52 42 -171 113
-255 153 -214 102 -412 158 -744 212 -267 43 -396 81 -576 170 -303 149 -561
402 -721 705 -72 137 -146 357 -163 485 -4 28 -10 71 -15 97 -4 26 -6 118 -5
205 2 183 26 326 81 491 41 122 141 330 186 387 5 6 32 42 60 80 179 242 429
430 728 548 78 31 224 70 305 82 17 3 41 7 55 11 53 12 347 11 435 -2 134 -20
139 -21 221 -44 511 -144 921 -522 1103 -1017 50 -136 76 -258 96 -438 32
-299 66 -470 135 -677 95 -284 256 -515 446 -638 l66 -44 19 25 c10 13 19 27
19 31 0 4 17 42 38 85 96 196 180 477 216 723 28 182 28 595 1 730 -2 13 -7
42 -10 65 -16 110 -85 375 -117 453 -6 15 -12 29 -13 32 -23 67 -98 234 -137
303 -21 38 -38 71 -38 74 0 19 -205 308 -282 398 -84 97 -238 252 -309 310
-104 85 -268 199 -370 257 -128 74 -436 211 -503 224 -17 3 -46 12 -151 44
-39 12 -225 47 -295 56 -30 3 -64 8 -75 11 -23 5 -451 13 -457 8z"/>
</g>
</svg>
