<svg width="100" height="100" viewBox="0 0 100 100" fill="none" xmlns="http://www.w3.org/2000/svg">
<path d="M94.0013 73.7465C99.6554 63.2696 101.386 51.1191 98.881 39.4805C96.3762 27.8418 89.8008 17.4787 80.3375 10.2553C70.8741 3.03187 59.1439 -0.577879 47.2567 0.0753326C35.3695 0.728544 24.1054 5.60184 15.4905 13.8187C6.87562 22.0355 1.47531 33.0566 0.260906 44.8997C-0.953495 56.7428 2.09772 68.6305 8.86573 78.4247C15.6337 88.2189 25.6744 95.2769 37.1816 98.329C48.6889 101.381 60.9076 100.227 71.64 95.0746L68.4027 88.3315C65.7734 82.8548 59.1487 80.7689 53.1031 81.367C49.3801 81.7353 45.5922 81.4408 41.9193 80.4667C34.6651 78.5426 28.3355 74.0933 24.0689 67.919C19.8024 61.7447 17.8789 54.2506 18.6444 46.7848C19.41 39.3189 22.8144 32.3712 28.2452 27.1912C33.676 22.0113 40.7769 18.9392 48.2707 18.5274C55.7644 18.1156 63.1591 20.3912 69.1248 24.9449C75.0905 29.4985 79.2357 36.0314 80.8147 43.3685C81.6141 47.0833 81.7292 50.8808 81.1853 54.5823C80.3022 60.5929 82.0725 67.3088 87.4188 70.194L94.0013 73.7465Z" fill="url(#paint0_linear_57_27342)"/>
<path d="M72.8806 62.3481C75.8207 56.9002 76.7205 50.5819 75.418 44.5298C74.1155 38.4777 70.6963 33.0889 65.7754 29.3328C60.8545 25.5766 54.7548 23.6995 48.5734 24.0392C42.3921 24.3789 36.5348 26.913 32.055 31.1857C27.5753 35.4585 24.7672 41.1895 24.1357 47.3478C23.5042 53.5062 25.0908 59.6878 28.6102 64.7808C32.1295 69.8738 37.3506 73.5439 43.3344 75.131C49.3182 76.7181 55.6719 76.118 61.2527 73.4387C58.9558 68.6543 52.9901 66.9669 47.7339 66.233C47.0842 66.1423 46.4378 66.0123 45.798 65.8426C42.0258 64.8421 38.7344 62.5285 36.5158 59.3179C34.2972 56.1072 33.297 52.2103 33.6951 48.3281C34.0932 44.4458 35.8634 40.833 38.6875 38.1394C41.5115 35.4459 45.204 33.8484 49.1007 33.6343C52.9974 33.4201 56.8427 34.6034 59.9448 36.9713C63.047 39.3392 65.2025 42.7363 66.0235 46.5516C66.1628 47.1987 66.2621 47.8505 66.322 48.5038C66.8065 53.7888 68.2101 59.8276 72.8806 62.3481Z" fill="url(#paint1_linear_57_27342)"/>
<defs>
<linearGradient id="paint0_linear_57_27342" x1="50.0001" y1="-3.05176e-05" x2="50.0001" y2="100" gradientUnits="userSpaceOnUse">
<stop stop-color="#FFB17D"/>
<stop offset="1" stop-color="#FA6400"/>
</linearGradient>
<linearGradient id="paint1_linear_57_27342" x1="50" y1="24" x2="50" y2="76" gradientUnits="userSpaceOnUse">
<stop stop-color="#FFB17D"/>
<stop offset="1" stop-color="#FA6400"/>
</linearGradient>
</defs>
</svg>
